<?xml version="1.0" encoding="utf-8"?>
<svg version="1.1" xmlns="http://www.w3.org/2000/svg" xmlns:xlink="http://www.w3.org/1999/xlink" x="0px" y="0px"
	 viewBox="0 0 500 500" style="enable-background:new 0 0 500 500;" xml:space="preserve">

<g id="OBJECTS">
	<g>
		<polygon style="fill:#261730;" points="399.277,224.785 393.425,340.934 412.772,343.724 422.709,228.864 		"/>
		<polygon style="fill:#422454;" points="371.198,335.147 373.56,225.447 399.277,224.785 393.425,340.934 		"/>
	</g>
	<g>
		<polygon style="fill:#4C2B61;" points="287.846,335.949 284.513,282.616 302.513,279.949 303.846,338.616 		"/>
		<polygon style="fill:#361F45;" points="302.513,279.949 356.513,280.616 356.513,302.616 406.513,308.616 402.513,343.949 
			303.846,338.616 		"/>
	</g>
	<g>
		<polygon style="fill:#361F45;" points="182.465,243.724 182.465,343.221 200.513,345.785 200.513,246.616 		"/>
		<polygon style="fill:#4C2B61;" points="148.024,243.724 150.878,294.596 72.513,310.281 78,346.045 182.465,343.221 
			182.465,243.724 		"/>
	</g>
	<path style="fill:#37782C;" d="M437.522,341.387c-122.314-18.104-313.171-9.271-375.043,6.419
		C186.719,364.504,314.803,367.803,437.522,341.387z"/>
	<path style="fill:#489C3A;" d="M96.833,344.667c49.555-7.925,216.088-13.481,296.592-1.683
		c-35.017,5.987-74.659,6.874-103.925,7.266C223.441,351.134,162.658,350.294,96.833,344.667z"/>
	<path style="fill:#DED4AA;" d="M159.301,289.539c-7.741-1.48-16.194-0.671-24.052-0.668c-9.144,0.003-18.748-0.818-27.82,0.371
		c-1.341,0.176-1.341,1.91,0,2.086c8.433,1.106,17.334,0.368,25.833,0.371c8.489,0.003,17.678,0.931,26.039-0.668
		C160.042,290.889,160.042,289.681,159.301,289.539z"/>
	<path style="fill:#DED4AA;" d="M167.017,324.358c-3.918-0.89-7.99-0.537-11.989-0.526c-5.215,0.014-10.43,0.023-15.645,0.033
		c-10.353,0.02-20.979-0.635-31.289,0.353c-1.373,0.132-1.373,2.001,0,2.133c9.671,0.927,19.623,0.331,29.333,0.349
		c5.215,0.01,10.43,0.017,15.644,0.031c4.608,0.013,9.429,0.505,13.944-0.521C167.937,326.003,167.937,324.567,167.017,324.358z"/>
	<path style="fill:#DED4AA;" d="M278.791,289.539c-8.763-1.48-18.333-0.671-27.229-0.668c-10.352,0.003-21.225-0.818-31.495,0.371
		c-1.518,0.176-1.518,1.91,0,2.086c9.548,1.106,19.624,0.368,29.246,0.371c9.61,0.003,20.013,0.931,29.479-0.668
		C279.63,290.889,279.63,289.681,278.791,289.539z"/>
	<path style="fill:#DED4AA;" d="M279.522,324.358c-3.918-0.89-7.99-0.537-11.989-0.526c-5.215,0.014-10.43,0.023-15.644,0.033
		c-10.353,0.02-20.979-0.635-31.289,0.353c-1.373,0.132-1.373,2.001,0,2.133c9.671,0.927,19.623,0.331,29.333,0.349
		c5.215,0.01,10.43,0.017,15.644,0.031c4.608,0.013,9.429,0.505,13.944-0.521C280.442,326.003,280.442,324.567,279.522,324.358z"/>
	<path style="fill:#DED4AA;" d="M278.791,254.636c-8.763-1.48-18.333-0.671-27.229-0.669c-10.352,0.003-21.225-0.818-31.495,0.371
		c-1.518,0.176-1.518,1.91,0,2.086c9.548,1.106,19.624,0.368,29.246,0.371c9.61,0.003,20.013,0.931,29.479-0.668
		C279.63,255.986,279.63,254.777,278.791,254.636z"/>
	<path style="fill:#F5EABC;" d="M222.078,300.376c-0.022-14.812,0.319-29.796-0.353-44.574c-0.107-2.365-2.143-2.365-2.25,0
		c-0.624,13.727-0.328,27.633-0.348,41.391c-0.022,14.804-0.586,29.877,0.582,44.575c0.149,1.869,1.633,1.869,1.781,0
		C222.578,328.095,222.098,314.145,222.078,300.376z"/>
	<path style="fill:#F5EABC;" d="M247.022,284.44c-0.022-20.328,0.319-40.893-0.353-61.174c-0.107-3.246-2.143-3.246-2.25,0
		c-0.624,18.838-0.328,37.924-0.348,56.805c-0.022,20.317-0.586,41.003,0.582,61.174c0.149,2.565,1.633,2.565,1.781,0
		C247.522,322.482,247.043,303.337,247.022,284.44z"/>
	<path style="fill:#F5EABC;" d="M280.356,297.351c-0.022-15.859,0.319-31.903-0.353-47.726c-0.107-2.532-2.142-2.532-2.25,0
		c-0.624,14.697-0.328,29.587-0.348,44.317c-0.022,15.851-0.586,31.989,0.582,47.726c0.149,2.001,1.633,2.001,1.781,0
		C280.856,327.03,280.376,312.094,280.356,297.351z"/>
	<path style="fill:#DED4AA;" d="M371.323,289.539c-7.741-1.48-16.194-0.671-24.052-0.668c-9.144,0.003-18.748-0.818-27.82,0.371
		c-1.341,0.176-1.341,1.91,0,2.086c8.434,1.106,17.334,0.368,25.833,0.371c8.489,0.003,17.678,0.931,26.039-0.668
		C372.064,290.889,372.064,289.681,371.323,289.539z"/>
	<path style="fill:#DED4AA;" d="M379.039,324.358c-3.918-0.89-7.99-0.537-11.989-0.526c-5.215,0.014-10.43,0.023-15.644,0.033
		c-10.353,0.02-20.979-0.635-31.289,0.353c-1.373,0.132-1.373,2.001,0,2.133c9.671,0.927,19.623,0.331,29.333,0.349
		c5.215,0.01,10.43,0.017,15.645,0.031c4.608,0.013,9.429,0.505,13.944-0.521C379.959,326.003,379.959,324.567,379.039,324.358z"/>
	<path style="fill:#F5EABC;" d="M321.595,320.62c-0.022-7.805,0.319-15.7-0.353-23.487c-0.108-1.246-2.143-1.246-2.25,0
		c-0.624,7.233-0.328,14.56-0.348,21.81c-0.022,7.801-0.586,15.743,0.582,23.487c0.149,0.985,1.633,0.985,1.781,0
		C322.095,335.226,321.615,327.875,321.595,320.62z"/>
	<path style="fill:#F5EABC;" d="M346.539,307.732c-0.022-12.266,0.319-24.675-0.353-36.913c-0.107-1.959-2.142-1.959-2.25,0
		c-0.624,11.367-0.328,22.883-0.348,34.276c-0.022,12.26-0.586,24.741,0.582,36.913c0.149,1.548,1.633,1.548,1.781,0
		C347.039,330.686,346.559,319.134,346.539,307.732z"/>
	<path style="fill:#F5EABC;" d="M379.873,329.302c-0.022-4.799,0.319-9.655-0.353-14.444c-0.108-0.766-2.143-0.766-2.25,0
		c-0.624,4.448-0.328,8.954-0.348,13.412c-0.022,4.797-0.586,9.681,0.582,14.444c0.149,0.605,1.633,0.605,1.781,0
		C380.373,338.284,379.893,333.764,379.873,329.302z"/>
	<g>
		
			<text transform="matrix(0.9912 0.1327 -0.1327 0.9912 207.3032 326.9896)" style="fill:#FF4F4F; font-family:'BuiltTitlingSb-Regular'; font-size:185px;">0</text>
	</g>
	<g>
		
			<text transform="matrix(1 0 0 1 312.8686 342.9839)" style="fill:#FF4F4F; font-family:'BuiltTitlingSb-Regular'; font-size:185px;">4</text>
	</g>
	<path style="fill:#F5EABC;" d="M109.573,320.62c-0.022-7.805,0.319-15.7-0.353-23.487c-0.107-1.246-2.143-1.246-2.25,0
		c-0.624,7.233-0.328,14.56-0.348,21.81c-0.022,7.801-0.586,15.743,0.582,23.487c0.149,0.985,1.633,0.985,1.781,0
		C110.073,335.226,109.593,327.875,109.573,320.62z"/>
	<path style="fill:#F5EABC;" d="M134.518,307.732c-0.022-12.266,0.319-24.675-0.353-36.913c-0.107-1.959-2.143-1.959-2.25,0
		c-0.624,11.367-0.328,22.883-0.348,34.276c-0.022,12.26-0.586,24.741,0.582,36.913c0.149,1.548,1.633,1.548,1.781,0
		C135.018,330.686,134.538,319.134,134.518,307.732z"/>
	<path style="fill:#F5EABC;" d="M167.851,329.302c-0.022-4.799,0.319-9.655-0.353-14.444c-0.107-0.766-2.143-0.766-2.25,0
		c-0.624,4.448-0.328,8.954-0.348,13.412c-0.022,4.797-0.586,9.681,0.582,14.444c0.149,0.605,1.633,0.605,1.781,0
		C168.351,338.284,167.871,333.764,167.851,329.302z"/>
	<g>
		
			<text transform="matrix(1 0 0 1 101.0355 342.9839)" style="fill:#FF4F4F; font-family:'BuiltTitlingSb-Regular'; font-size:185px;">4</text>
	</g>
	<path style="fill:#37782C;" d="M402.259,340.287c0.744-3.439,1.487-6.878,2.231-10.317c-1.701,1.872-3.335,3.711-4.804,5.77
		c0.954-6.514,0.613-13.215-0.997-19.599c-1.38,5.837-1.935,11.893-1.678,17.885c-0.924-2.49-2.943-4.551-5.413-5.526
		c2.087,3.638,3.733,7.529,4.889,11.561C398.122,340.152,400.625,340.195,402.259,340.287z"/>
	<path style="fill:#37782C;" d="M191.399,333.911c0.09-3.036,1.851-5.911,3.48-8.846c-2.26,0.895-4.085,2.826-4.852,5.133
		c0.181-5.814-0.058-11.64-0.712-17.42c-1.554,5.05-1.936,10.456-1.108,15.674c-0.863-1.843-2.344-3.391-4.149-4.332
		c1.441,3.631,2.066,6.381,1.814,10.438C187.035,334.646,190.237,333.823,191.399,333.911z"/>
	
	<path style="fill:#5A3673;" d="M94.741,213.872c-1.459-1.274-1.646-3.795-0.137-5.122c1.478-1.299,4.115-0.856,5.086,0.855
		c0.053-1.151,0.216-2.681,0.595-3.768c0.379-1.088,1.134-2.102,2.21-2.515c1.075-0.413,2.472-0.062,3.014,0.954
		c0.355-1.534,1.391-3.931,2.524-5.024s2.82-1.694,4.33-1.247c2.315,0.686,3.342,3.378,3.682,5.768
		c0.322,2.263,0.324,4.571,0.006,6.834c0.52-1.558,2.163-1.588,3.686-0.972c1.607,0.651,1.978,2.436,1.844,3.967
		c5.825,0.604,11.633-1.082,17.46-0.928c0.731,0.019,1.613,0.141,1.906,0.811c0.268,0.611-0.175,1.345-0.776,1.633
		c-5.082,2.441-11.957,1.427-17.455,1.787c-6.772,0.443-13.547,0.836-20.325,1.179c-5.053,0.256-10.107,0.485-15.163,0.683
		c-0.737,0.029-9.63,0.916-9.336-0.498c0.622-2.988,5.277-2.989,7.66-3.488C88.577,214.149,91.801,214.556,94.741,213.872z"/>
	<path style="opacity:0.1;fill:#E6E7E8;" d="M243.048,118.464L190.469,349.6c0,0,70.202,15.733,121.381,0.414l-28.904-227.785
		L243.048,118.464z"/>
	<path style="fill:#3D3D3D;" d="M320.034,118.792c-3.701,5.513-15.019,8.977-31.661,9.09c-17.602,0.12-46.668-3.293-61.911-6.294
		c-8.887-1.749-16.975-6.016-22.348-12.545C241.573,115.058,282.096,118.875,320.034,118.792z"/>
	<path style="fill:#4D4D4D;" d="M320.838,117.364c-0.512-13.007-114.979-23.004-117.05-9.305
		C203.988,119.018,320.23,128.608,320.838,117.364z"/>
	<path style="fill:#FFB133;" d="M288.171,111.045c-0.851-12.445-11.424-23.519-23.816-24.946
		c-12.392-1.427-25.205,6.954-28.863,18.88C242.789,115.558,279.693,119.492,288.171,111.045z"/>
	<path style="fill:#FFBE54;" d="M282.821,104.214c-1.415-3.77-3.746-7.069-6.736-9.755c-2.625-2.358-6.776-5.155-10.465-4.892
		c-1.116,0.08-1.381,1.664-0.544,2.261c1.327,0.946,2.976,1.475,4.424,2.218c1.507,0.773,2.884,1.824,4.16,2.929
		c2.695,2.335,4.7,5.36,5.948,8.685C280.406,107.787,283.617,106.335,282.821,104.214z"/>
	<path style="fill:#FFBE54;" d="M284.457,110.391c-0.034-0.596-0.232-1.179-0.395-1.724c-0.14-0.469-0.287-0.894-0.698-1.198
		c-0.324-0.239-0.826-0.347-1.206-0.179c-0.788,0.348-0.928,1.056-0.899,1.837c0.02,0.551,0.02,1.183,0.18,1.759
		c0.223,0.803,0.867,1.407,1.758,1.262C284.083,112.004,284.504,111.223,284.457,110.391z"/>
	<path style="fill:#FB5152;" d="M215.517,111.829c-3.164,0-3.164,4.906,0,4.906S218.681,111.829,215.517,111.829z"/>
	<path style="fill:#FB5152;" d="M226.184,114.538c-2.68,0-2.68,4.156,0,4.156C228.864,118.694,228.864,114.538,226.184,114.538z"/>
	<path style="fill:#FB5152;" d="M239.517,116.647c-2.539,0-2.539,3.938,0,3.938S242.057,116.647,239.517,116.647z"/>
	<path style="fill:#FB5152;" d="M251.184,118.428c-2.821,0-2.821,4.375,0,4.375S254.005,118.428,251.184,118.428z"/>
	<path style="fill:#FB5152;" d="M264.517,119.506c-2.72,0-2.72,4.219,0,4.219C267.238,123.725,267.238,119.506,264.517,119.506z"/>
	<path style="fill:#FB5152;" d="M280.076,121.928c-0.013-0.052-0.025-0.104-0.038-0.156c-0.449-1.839-3.257-1.839-3.706,0
		c-0.013,0.052-0.025,0.104-0.038,0.156c-0.301,1.234,0.588,2.483,1.891,2.483S280.377,123.161,280.076,121.928z"/>
	<path style="fill:#FB5152;" d="M290.851,120.522c-2.7,0-2.7,4.188,0,4.188C293.551,124.71,293.551,120.522,290.851,120.522z"/>
	<path style="fill:#FB5152;" d="M304.184,120.866c-2.257,0-2.257,3.5,0,3.5C306.441,124.366,306.441,120.866,304.184,120.866z"/>
	<path style="fill:#FB5152;" d="M314.184,118.642c-2.116,0-2.116,3.281,0,3.281C316.3,121.923,316.3,118.642,314.184,118.642z"/>
	<path style="opacity:0.1;fill:#E6E7E8;" d="M189.469,349.6c0,0,70.202,15.733,121.381,0.414c0,0-16.346-4.26-52.346-3.969
		C224.97,346.316,189.469,349.6,189.469,349.6z"/>
	<path style="fill:#F3FFDE;" d="M183.502,190.153l-1.163-0.636c-1.048-0.573-1.909-1.434-2.482-2.482l-0.636-1.162
		c-0.089-0.162-0.321-0.162-0.409,0l-0.636,1.162c-0.573,1.048-1.434,1.909-2.482,2.482l-1.163,0.636
		c-0.162,0.089-0.162,0.321,0,0.409l1.163,0.636c1.048,0.573,1.909,1.434,2.482,2.482l0.636,1.163c0.088,0.162,0.321,0.162,0.409,0
		l0.636-1.163c0.573-1.048,1.434-1.909,2.482-2.482l1.163-0.636C183.664,190.473,183.664,190.241,183.502,190.153z"/>
	<path style="fill:#F3FFDE;" d="M374.867,146.455l-1.163-0.636c-1.048-0.573-1.909-1.434-2.482-2.482l-0.636-1.163
		c-0.089-0.162-0.321-0.162-0.409,0l-0.636,1.163c-0.573,1.048-1.434,1.909-2.482,2.482l-1.163,0.636
		c-0.162,0.088-0.162,0.321,0,0.409l1.163,0.636c1.048,0.573,1.909,1.434,2.482,2.482l0.636,1.163c0.088,0.162,0.321,0.162,0.409,0
		l0.636-1.163c0.573-1.048,1.434-1.909,2.482-2.482l1.163-0.636C375.029,146.776,375.029,146.544,374.867,146.455z"/>
	<path style="fill:#F3FFDE;" d="M131.193,157.298l-0.96-0.525c-0.865-0.473-1.577-1.185-2.05-2.05l-0.525-0.96
		c-0.073-0.133-0.265-0.133-0.338,0l-0.525,0.96c-0.473,0.865-1.185,1.577-2.05,2.05l-0.96,0.525c-0.134,0.073-0.134,0.265,0,0.338
		l0.96,0.525c0.865,0.473,1.577,1.185,2.05,2.05l0.525,0.96c0.073,0.133,0.265,0.133,0.338,0l0.525-0.96
		c0.473-0.865,1.185-1.577,2.05-2.05l0.96-0.525C131.326,157.563,131.326,157.372,131.193,157.298z"/>
	<path style="fill:#F3FFDE;" d="M448.443,205.165l-0.96-0.525c-0.865-0.473-1.577-1.184-2.05-2.05l-0.525-0.96
		c-0.073-0.133-0.265-0.133-0.338,0l-0.525,0.96c-0.473,0.865-1.185,1.577-2.05,2.05l-0.96,0.525c-0.134,0.073-0.134,0.265,0,0.338
		l0.96,0.525c0.865,0.473,1.577,1.185,2.05,2.05l0.525,0.96c0.073,0.133,0.265,0.133,0.338,0l0.525-0.96
		c0.473-0.865,1.185-1.577,2.05-2.05l0.96-0.525C448.576,205.43,448.576,205.238,448.443,205.165z"/>
	<path style="fill:#F3FFDE;" d="M388.942,136.477l-0.96-0.525c-0.865-0.473-1.576-1.185-2.05-2.05l-0.525-0.96
		c-0.073-0.133-0.265-0.133-0.338,0l-0.525,0.96c-0.473,0.865-1.185,1.577-2.05,2.05l-0.96,0.525c-0.133,0.073-0.133,0.265,0,0.338
		l0.96,0.525c0.865,0.473,1.577,1.184,2.05,2.05l0.525,0.96c0.073,0.133,0.265,0.133,0.338,0l0.525-0.96
		c0.473-0.865,1.184-1.577,2.05-2.05l0.96-0.525C389.075,136.742,389.075,136.55,388.942,136.477z"/>
	<path style="fill:#F3FFDE;" d="M336.102,169.724l-0.526-0.288c-0.474-0.259-0.864-0.649-1.124-1.124l-0.288-0.526
		c-0.04-0.073-0.145-0.073-0.185,0l-0.288,0.526c-0.259,0.474-0.649,0.864-1.124,1.124l-0.526,0.288
		c-0.073,0.04-0.073,0.145,0,0.185l0.526,0.288c0.474,0.259,0.864,0.649,1.124,1.124l0.288,0.526c0.04,0.073,0.145,0.073,0.185,0
		l0.288-0.526c0.259-0.474,0.649-0.864,1.124-1.124l0.526-0.288C336.175,169.869,336.175,169.764,336.102,169.724z"/>
	<path style="fill:#F3FFDE;" d="M200.393,171.517l-0.526-0.288c-0.474-0.259-0.864-0.649-1.124-1.124l-0.288-0.526
		c-0.04-0.073-0.145-0.073-0.185,0l-0.288,0.526c-0.259,0.474-0.649,0.864-1.124,1.124l-0.526,0.288
		c-0.073,0.04-0.073,0.145,0,0.185l0.526,0.288c0.474,0.259,0.864,0.649,1.124,1.124l0.288,0.526c0.04,0.073,0.145,0.073,0.185,0
		l0.288-0.526c0.259-0.474,0.649-0.864,1.124-1.124l0.526-0.288C200.466,171.662,200.466,171.557,200.393,171.517z"/>
	<path style="fill:#F3FFDE;" d="M422.648,213.216l-0.526-0.288c-0.474-0.259-0.864-0.649-1.124-1.124l-0.288-0.526
		c-0.04-0.073-0.145-0.073-0.185,0l-0.288,0.526c-0.259,0.474-0.649,0.864-1.124,1.124l-0.526,0.288
		c-0.073,0.04-0.073,0.145,0,0.185l0.526,0.288c0.474,0.259,0.864,0.649,1.124,1.124l0.288,0.526c0.04,0.073,0.145,0.073,0.185,0
		l0.288-0.526c0.259-0.474,0.649-0.864,1.124-1.124l0.526-0.288C422.721,213.361,422.721,213.256,422.648,213.216z"/>
	<path style="fill:#F3FFDE;" d="M147.422,148.292l-0.526-0.288c-0.474-0.259-0.864-0.649-1.124-1.124l-0.288-0.526
		c-0.04-0.073-0.145-0.073-0.185,0l-0.288,0.526c-0.259,0.474-0.649,0.864-1.124,1.124l-0.526,0.288
		c-0.073,0.04-0.073,0.145,0,0.185l0.526,0.288c0.474,0.259,0.864,0.649,1.124,1.124l0.288,0.526c0.04,0.073,0.145,0.073,0.185,0
		l0.288-0.526c0.259-0.474,0.649-0.864,1.124-1.124l0.526-0.288C147.495,148.437,147.495,148.332,147.422,148.292z"/>
	<path style="fill:#FEC108;" d="M322.178,211.908c-1.974-1.178-4.11-1.848-6.257-2.05c3.102,4.65,3.46,10.857,0.404,15.977
		c-3.056,5.119-8.689,7.75-14.254,7.227c1.196,1.793,2.799,3.356,4.773,4.535c7.094,4.234,16.277,1.916,20.511-5.177
		C331.589,225.325,329.271,216.142,322.178,211.908z"/>
	<path style="fill:#5A3673;" d="M344.621,184.832c-1.733-0.245-3.473-0.551-5.224-0.931c-0.599-0.13-1.263-0.317-1.564-0.85
		c-0.333-0.591-0.042-1.378,0.478-1.815c0.519-0.437,1.206-0.608,1.867-0.76c1.889-0.432,25.599-3.822,25.668-3.395
		c-0.368-2.304-1.384-5.336,0.928-7.098c1.652-1.259,4.426-0.473,5.173,1.465c-0.117-2.468,1.755-5.716,3.301-7.643
		c1.546-1.927,4.257-3.021,6.591-2.214s3.805,3.788,2.632,5.962c-1.185-3.467,3.188-8.061,6.568-9.474
		c3.38-1.413,7.53-0.279,10.069,2.362c2.539,2.641,3.531,6.547,3.046,10.178c-0.435,3.254-2.114,6.132-3.697,8.902
		c4.346,0.932,8.824,0.561,13.224,0.904c2.96,0.234,6.173,0.916,8.142,2.988c-4.747,2.428-10.961,1.387-16.218,1.497
		c-11.977,0.252-23.915,0.389-35.826,0.675C361.188,185.793,352.979,186.016,344.621,184.832z"/>
</g>

</svg>
