<svg xmlns="http://www.w3.org/2000/svg" width="24" height="24"><path style="stroke:none;fill-rule:evenodd;fill:#ccc;fill-opacity:1" d="m21 10.637-9 10.738-9-10.781c-1.078-1.496-1.5-2.508-1.5-3.89 0-2.579 1.84-4.9 4.5-4.923 2.188-.02 4.668 2.215 6 3.899 1.297-1.625 3.813-3.899 6-3.899 2.59 0 4.5 2.344 4.5 4.922 0 1.383-.336 2.469-1.5 3.934ZM18 .375c-2.5 0-4.39 1.469-6 3-1.531-1.625-3.5-3-6-3-3.52 0-6 3.027-6 6.328 0 1.77.727 3.047 1.52 4.246l9.324 11.18c1.047 1.105 1.246 1.105 2.289 0l9.347-11.18C23.414 9.75 24 8.473 24 6.703c0-3.3-2.48-6.328-6-6.328Zm0 0"/></svg>